<svg width="32" height="32" viewBox="0 0 32 32" fill="none" xmlns="http://www.w3.org/2000/svg">
<mask id="mask0_2389_803" style="mask-type:alpha" maskUnits="userSpaceOnUse" x="2" y="6" width="28" height="20">
<path fill-rule="evenodd" clip-rule="evenodd" d="M2.66675 8C2.66675 7.26362 3.2637 6.66667 4.00008 6.66667H28.0001C28.7365 6.66667 29.3334 7.26362 29.3334 8C29.3334 8.73638 28.7365 9.33333 28.0001 9.33333H4.00008C3.2637 9.33333 2.66675 8.73638 2.66675 8ZM2.66675 16C2.66675 15.2636 3.2637 14.6667 4.00008 14.6667H28.0001C28.7365 14.6667 29.3334 15.2636 29.3334 16C29.3334 16.7364 28.7365 17.3333 28.0001 17.3333H4.00008C3.2637 17.3333 2.66675 16.7364 2.66675 16ZM2.66675 24C2.66675 23.2636 3.2637 22.6667 4.00008 22.6667H28.0001C28.7365 22.6667 29.3334 23.2636 29.3334 24C29.3334 24.7364 28.7365 25.3333 28.0001 25.3333H4.00008C3.2637 25.3333 2.66675 24.7364 2.66675 24Z" fill="black"/>
</mask>
<g mask="url(#mask0_2389_803)">
<rect width="32" height="32" transform="matrix(-1 0 0 1 32 0)" fill="white" fill-opacity="0.4"/>
</g>
</svg>
