<svg width="1158" height="1074" viewBox="0 0 1158 1074" fill="none" xmlns="http://www.w3.org/2000/svg">
<path d="M0 385.868V514.491H128.667V385.868H257.333V257.246H386V0H257.333V128.623H128.667V385.868H0Z" fill="white" fill-opacity="0.03"/>
<path d="M0 559.509V688.132H128.667V816.754H386V945.377H257.333V1074H386V945.377H514.667V688.132L257.333 688.132V559.509H0Z" fill="white" fill-opacity="0.03"/>
<path d="M1158 514.491V385.868H1029.33V128.623H900.667V0H772V257.246H514.667V514.491H772V257.246H900.667V514.491H1158Z" fill="white" fill-opacity="0.03"/>
<path d="M643.333 816.754H772V945.377H643.333V816.754Z" fill="white" fill-opacity="0.03"/>
<path d="M772 945.377H900.667V1074H772V945.377Z" fill="white" fill-opacity="0.03"/>
<path d="M772 816.754V559.509H1029.33V688.132L900.667 688.132V816.754H772Z" fill="white" fill-opacity="0.03"/>
</svg>
