<svg width="16" height="16" viewBox="0 0 16 16" fill="none" xmlns="http://www.w3.org/2000/svg">
<mask id="mask0_2465_1559" style="mask-type:alpha" maskUnits="userSpaceOnUse" x="1" y="1" width="14" height="14">
<path d="M11.0002 8.33333C10.4479 8.33333 10.0002 8.78105 10.0002 9.33333C10.0002 9.88562 10.4479 10.3333 11.0002 10.3333C11.5524 10.3333 12.0002 9.88562 12.0002 9.33333C12.0002 8.78105 11.5524 8.33333 11.0002 8.33333Z" fill="white"/>
<path fill-rule="evenodd" clip-rule="evenodd" d="M2.66683 3.33333C2.66683 2.96514 2.96531 2.66667 3.3335 2.66667H11.3335C11.7017 2.66667 12.0002 2.36819 12.0002 2C12.0002 1.63181 11.7017 1.33333 11.3335 1.33333H3.3335C2.22893 1.33333 1.3335 2.22876 1.3335 3.33333V12.6667C1.3335 13.7712 2.22893 14.6667 3.3335 14.6667H12.6668C13.7714 14.6667 14.6668 13.7712 14.6668 12.6667V6C14.6668 4.89543 13.7714 4 12.6668 4L3.3335 4C2.96531 4 2.66683 3.70152 2.66683 3.33333ZM2.66683 12.6667V5.21953C2.87535 5.29323 3.09974 5.33333 3.3335 5.33333L12.6668 5.33333C13.035 5.33333 13.3335 5.63181 13.3335 6V12.6667C13.3335 13.0349 13.035 13.3333 12.6668 13.3333H3.3335C2.96531 13.3333 2.66683 13.0349 2.66683 12.6667Z" fill="white"/>
</mask>
<g mask="url(#mask0_2465_1559)">
<rect width="16" height="16" fill="white" fill-opacity="0.4"/>
</g>
</svg>
